<svg width="82" height="52" viewBox="0 0 82 52" fill="none" xmlns="http://www.w3.org/2000/svg">
<path d="M5.457 9.232C5.92167 9.232 6.41467 9.181 6.936 9.079C7.46867 8.977 7.94467 8.841 8.364 8.671V10.49C7.74067 10.7393 7.17967 10.9093 6.681 11C6.19367 11.102 5.68367 11.153 5.151 11.153C3.46233 11.153 2.28367 10.7337 1.615 9.895C0.946333 9.045 0.612 7.62833 0.612 5.645C0.612 3.75233 1.00867 2.36967 1.802 1.497C2.59533 0.613 3.87033 0.171 5.627 0.171C6.14833 0.171 6.613 0.182333 7.021 0.204999C7.429 0.227666 7.79733 0.267333 8.126 0.324V2.109C7.69533 2.075 7.276 2.05233 6.868 2.041C6.47133 2.01833 6.05767 2.007 5.627 2.007C4.48233 2.007 3.706 2.27333 3.298 2.806C2.90133 3.33867 2.703 4.285 2.703 5.645C2.703 7.005 2.88433 7.94567 3.247 8.467C3.621 8.977 4.35767 9.232 5.457 9.232ZM14.3258 7.362V11H12.2858V0.340999H16.0428C17.6182 0.340999 18.7402 0.607333 19.4088 1.14C20.0888 1.67267 20.4288 2.56233 20.4288 3.809C20.4288 4.70433 20.2305 5.42967 19.8338 5.985C19.4485 6.529 18.8592 6.90867 18.0658 7.124L20.7518 11H18.3038L15.9068 7.362H14.3258ZM18.3548 3.809C18.3548 3.21967 18.1792 2.80033 17.8278 2.551C17.4878 2.30167 16.8928 2.177 16.0428 2.177H14.3258V5.662H16.0428C16.8928 5.662 17.4878 5.52033 17.8278 5.237C18.1792 4.95367 18.3548 4.47767 18.3548 3.809ZM26.6873 0.340999V11H24.6473V0.340999H26.6873ZM35.3613 6.767L32.9983 6.206C32.2163 6.02467 31.6667 5.73 31.3493 5.322C31.032 4.90267 30.8733 4.30767 30.8733 3.537C30.8733 2.381 31.1907 1.531 31.8253 0.986999C32.46 0.442999 33.446 0.171 34.7833 0.171C35.3387 0.171 35.8317 0.199333 36.2623 0.256C36.7043 0.301333 37.1123 0.375 37.4863 0.477V2.313C36.8403 2.18833 36.3247 2.109 35.9393 2.075C35.554 2.02967 35.1573 2.007 34.7493 2.007C34.0693 2.007 33.5877 2.11467 33.3043 2.33C33.021 2.534 32.8793 2.891 32.8793 3.401C32.8793 3.69567 32.936 3.92233 33.0493 4.081C33.174 4.22833 33.378 4.336 33.6613 4.404L35.9563 4.948C36.489 5.07267 36.8857 5.203 37.1463 5.339C37.407 5.46367 37.6223 5.62233 37.7923 5.815C37.9623 6.03033 38.087 6.29667 38.1663 6.614C38.257 6.93133 38.3023 7.32233 38.3023 7.787C38.3023 8.98833 37.985 9.84967 37.3503 10.371C36.7157 10.8923 35.7297 11.153 34.3923 11.153C33.701 11.153 33.0323 11.1077 32.3863 11.017C31.7517 10.9263 31.253 10.813 30.8903 10.677V8.756C31.3777 8.90333 31.9273 9.02233 32.5393 9.113C33.1627 9.19233 33.7803 9.232 34.3923 9.232C35.061 9.232 35.5257 9.14133 35.7863 8.96C36.0583 8.76733 36.1943 8.399 36.1943 7.855C36.1943 7.515 36.1377 7.27133 36.0243 7.124C35.9223 6.96533 35.7013 6.84633 35.3613 6.767ZM49.7335 0.340999V2.177H46.5035V11H44.4635V2.177H41.2505V0.340999H49.7335ZM55.5707 0.340999V11H53.5307V0.340999H55.5707ZM61.3377 11H59.1957L63.2757 0.340999H65.3837L69.3957 11H67.2537L66.4887 8.824H62.0857L61.3377 11ZM64.2787 2.296C64.1541 2.72667 64.0124 3.18 63.8537 3.656C63.7064 4.132 63.5647 4.574 63.4287 4.982L62.6807 7.141H65.8937L65.1457 4.982C65.0211 4.61933 64.8794 4.2 64.7207 3.724C64.5621 3.23667 64.4147 2.76067 64.2787 2.296ZM81.9999 0.340999V11H80.0109L74.9619 3.775V11H73.0409V0.340999H75.0299L80.0959 7.736V0.340999H81.9999ZM3.06 31H1.02V20.341H3.06V24.659H7.718V20.341H9.758V31H7.718V26.512H3.06V31ZM21.0424 26.631V20.341H23.0824V26.631C23.0824 28.161 22.7197 29.3 21.9944 30.048C21.2691 30.7847 20.1584 31.153 18.6624 31.153C17.1324 31.153 16.0161 30.796 15.3134 30.082C14.6107 29.368 14.2594 28.2177 14.2594 26.631V20.341H16.2994V26.631C16.2994 27.6283 16.4694 28.314 16.8094 28.688C17.1494 29.0507 17.7671 29.232 18.6624 29.232C19.5691 29.232 20.1924 29.045 20.5324 28.671C20.8724 28.297 21.0424 27.617 21.0424 26.631ZM29.6258 20.341V31H27.5858V20.341H29.6258ZM37.3988 26.937V20.341H39.4388V27.056C39.4388 28.5067 39.1215 29.555 38.4868 30.201C37.8635 30.8357 36.8321 31.153 35.3928 31.153C34.9848 31.153 34.6165 31.136 34.2878 31.102C33.9705 31.068 33.6928 31.017 33.4548 30.949V29.079C33.6928 29.1357 33.9478 29.1753 34.2198 29.198C34.4918 29.2207 34.8035 29.232 35.1548 29.232C36.0388 29.232 36.6338 29.0733 36.9398 28.756C37.2458 28.4273 37.3988 27.821 37.3988 26.937ZM48.0383 26.767L45.6753 26.206C44.8933 26.0247 44.3436 25.73 44.0263 25.322C43.7089 24.9027 43.5503 24.3077 43.5503 23.537C43.5503 22.381 43.8676 21.531 44.5023 20.987C45.1369 20.443 46.1229 20.171 47.4603 20.171C48.0156 20.171 48.5086 20.1993 48.9393 20.256C49.3813 20.3013 49.7893 20.375 50.1633 20.477V22.313C49.5173 22.1883 49.0016 22.109 48.6163 22.075C48.2309 22.0297 47.8343 22.007 47.4263 22.007C46.7463 22.007 46.2646 22.1147 45.9813 22.33C45.6979 22.534 45.5563 22.891 45.5563 23.401C45.5563 23.6957 45.6129 23.9223 45.7263 24.081C45.8509 24.2283 46.0549 24.336 46.3383 24.404L48.6333 24.948C49.1659 25.0727 49.5626 25.203 49.8233 25.339C50.0839 25.4637 50.2993 25.6223 50.4693 25.815C50.6393 26.0303 50.7639 26.2967 50.8433 26.614C50.9339 26.9313 50.9793 27.3223 50.9793 27.787C50.9793 28.9883 50.6619 29.8497 50.0273 30.371C49.3926 30.8923 48.4066 31.153 47.0693 31.153C46.3779 31.153 45.7093 31.1077 45.0633 31.017C44.4286 30.9263 43.9299 30.813 43.5673 30.677V28.756C44.0546 28.9033 44.6043 29.0223 45.2163 29.113C45.8396 29.1923 46.4573 29.232 47.0693 29.232C47.7379 29.232 48.2026 29.1413 48.4633 28.96C48.7353 28.7673 48.8713 28.399 48.8713 27.855C48.8713 27.515 48.8146 27.2713 48.7013 27.124C48.5993 26.9653 48.3783 26.8463 48.0383 26.767ZM62.1665 29.079V31H54.9585V20.341H62.0135V22.177H56.9985V24.693H61.3845V26.444H56.9985V29.079H62.1665ZM3.06 51H1.02V40.341H3.06V44.659H7.718V40.341H9.758V51H7.718V46.512H3.06V51ZM21.5524 49.079V51H14.3444V40.341H21.3994V42.177H16.3844V44.693H20.7704V46.444H16.3844V49.079H21.5524ZM27.6668 40.341V51H25.6268V40.341H27.6668ZM36.3408 46.767L33.9778 46.206C33.1958 46.0247 32.6462 45.73 32.3288 45.322C32.0115 44.9027 31.8528 44.3077 31.8528 43.537C31.8528 42.381 32.1702 41.531 32.8048 40.987C33.4395 40.443 34.4255 40.171 35.7628 40.171C36.3182 40.171 36.8112 40.1993 37.2418 40.256C37.6838 40.3013 38.0918 40.375 38.4658 40.477V42.313C37.8198 42.1883 37.3042 42.109 36.9188 42.075C36.5335 42.0297 36.1368 42.007 35.7288 42.007C35.0488 42.007 34.5672 42.1147 34.2838 42.33C34.0005 42.534 33.8588 42.891 33.8588 43.401C33.8588 43.6957 33.9155 43.9223 34.0288 44.081C34.1535 44.2283 34.3575 44.336 34.6408 44.404L36.9358 44.948C37.4685 45.0727 37.8652 45.203 38.1258 45.339C38.3865 45.4637 38.6018 45.6223 38.7718 45.815C38.9418 46.0303 39.0665 46.2967 39.1458 46.614C39.2365 46.9313 39.2818 47.3223 39.2818 47.787C39.2818 48.9883 38.9645 49.8497 38.3298 50.371C37.6952 50.8923 36.7092 51.153 35.3718 51.153C34.6805 51.153 34.0118 51.1077 33.3658 51.017C32.7312 50.9263 32.2325 50.813 31.8698 50.677V48.756C32.3572 48.9033 32.9068 49.0223 33.5188 49.113C34.1422 49.1923 34.7598 49.232 35.3718 49.232C36.0405 49.232 36.5052 49.1413 36.7658 48.96C37.0378 48.7673 37.1738 48.399 37.1738 47.855C37.1738 47.515 37.1172 47.2713 37.0038 47.124C36.9018 46.9653 36.6808 46.8463 36.3408 46.767ZM50.469 49.079V51H43.261V40.341H50.316V42.177H45.301V44.693H49.687V46.444H45.301V49.079H50.469Z" fill="black"/>
</svg>
