<svg width="125" height="50" viewBox="0 0 125 50" fill="none" xmlns="http://www.w3.org/2000/svg">
<path d="M76.4423 5.50646e-07C74.8536 -0.000972271 73.5654 1.28719 73.5664 2.87589V21.4785C76.9393 22.6413 79.2325 25.7802 79.3147 29.347V2.87589C79.3156 1.28854 78.0296 0.000955156 76.4423 5.50646e-07Z" fill="#FF7F2A"/>
<path d="M47.3657 4.12564e-07C45.7771 -0.000841552 44.4891 1.28714 44.49 2.87569V46.6475C44.4909 48.2348 45.7784 49.5207 47.3657 49.5199C48.9517 49.5189 50.2371 48.2335 50.2381 46.6475V2.87569C50.2389 1.28842 48.9529 0.000961703 47.3657 4.12564e-07Z" fill="black"/>
<path d="M18.7783 2.09565C13.6945 2.86748 8.86669 5.50367 5.33338 9.83161C-1.73323 18.4875 -1.78269 31.2176 5.21587 39.9333C12.2144 48.6489 24.4428 50.6415 33.6072 44.4737C34.2395 44.0481 34.6769 43.3889 34.8232 42.6408C34.9695 41.8928 34.8127 41.1173 34.3873 40.4849C33.9617 39.8526 33.3025 39.4152 32.5545 39.2689C31.8064 39.1226 31.0309 39.2794 30.3985 39.7048C23.6273 44.262 14.9576 42.8869 9.6975 36.3362C4.43742 29.7856 4.4768 19.9673 9.78563 13.4646C15.0945 6.96179 23.7718 5.66134 30.5095 10.2788C31.138 10.7098 31.912 10.8735 32.6612 10.7339C33.4105 10.5944 34.0736 10.163 34.5048 9.53457C34.9355 8.90564 35.0987 8.13138 34.9585 7.38213C34.8183 6.63287 34.3862 5.96999 33.7573 5.53929C29.1998 2.41601 23.862 1.32382 18.7783 2.09565Z" fill="#FF7F2A"/>
<path d="M56.6548 20.9966C55.0684 20.9965 53.7824 22.2945 53.7823 23.8958C53.7824 25.4971 55.0684 26.7951 56.6548 26.795C56.783 26.795 56.9111 26.7863 57.0382 26.7691H62.7183H70.4849H70.7864V26.7527C72.3273 26.7529 73.5765 28.0021 73.5767 29.5431V37.6042V46.4461C73.5722 46.5128 73.5699 46.5796 73.5699 46.6464C73.57 48.2477 74.856 49.5457 76.4423 49.5457C78.0283 49.5453 79.3138 48.2474 79.3139 46.6464H79.3174V29.5431C79.3174 24.8316 75.498 21.0121 70.7865 21.0121H70.7778H56.9511C56.8526 21.0018 56.7538 20.9966 56.6548 20.9966L56.6548 20.9966Z" fill="black"/>
<path d="M122.125 5.50646e-07C120.536 -0.000972271 119.248 1.28719 119.249 2.87589V21.4785C122.622 22.6413 124.915 25.7802 124.997 29.347V2.87589C124.998 1.28854 123.712 0.000955156 122.125 5.50646e-07Z" fill="#FF7F2A"/>
<path d="M93.0464 4.14039e-07C91.4591 0.000960033 90.1731 1.28841 90.174 2.87569V46.6475C90.1749 48.2335 91.4604 49.5189 93.0464 49.5199C94.6337 49.5207 95.9211 48.2348 95.9221 46.6475V2.87569C95.9229 1.28714 94.6349 -0.000843054 93.0464 4.14039e-07Z" fill="black"/>
<path d="M102.337 20.9966C100.751 20.9965 99.465 22.2945 99.4649 23.8958C99.465 25.4971 100.751 26.7951 102.337 26.795C102.466 26.795 102.594 26.7863 102.721 26.7691H108.401H116.168H116.469V26.7527C118.01 26.7529 119.259 28.0021 119.259 29.5431V37.6042V46.4461C119.255 46.5128 119.252 46.5796 119.252 46.6464C119.253 48.2477 120.539 49.5457 122.125 49.5457C123.711 49.5453 124.996 48.2474 124.997 46.6464H125V29.5431C125 24.8316 121.181 21.0121 116.469 21.0121H116.46H102.634C102.535 21.0018 102.436 20.9966 102.337 20.9966L102.337 20.9966Z" fill="black"/>
</svg>
