<?xml version="1.0" encoding="UTF-8" standalone="no"?>
<svg
   xmlns:dc="http://purl.org/dc/elements/1.1/"
   xmlns:cc="http://creativecommons.org/ns#"
   xmlns:rdf="http://www.w3.org/1999/02/22-rdf-syntax-ns#"
   xmlns:svg="http://www.w3.org/2000/svg"
   xmlns="http://www.w3.org/2000/svg"
   xmlns:sodipodi="http://sodipodi.sourceforge.net/DTD/sodipodi-0.dtd"
   xmlns:inkscape="http://www.inkscape.org/namespaces/inkscape"
   width="221"
   height="60"
   viewBox="0 0 221 60"
   fill="none"
   version="1.1"
   id="svg16"
   sodipodi:docname="logoSeo.svg"
   inkscape:version="1.0.2 (e86c870879, 2021-01-15, custom)">
  <metadata
     id="metadata22">
    <rdf:RDF>
      <cc:Work
         rdf:about="">
        <dc:format>image/svg+xml</dc:format>
        <dc:type
           rdf:resource="http://purl.org/dc/dcmitype/StillImage" />
        <dc:title></dc:title>
      </cc:Work>
    </rdf:RDF>
  </metadata>
  <defs
     id="defs20" />
  <sodipodi:namedview
     pagecolor="#ffffff"
     bordercolor="#666666"
     borderopacity="1"
     objecttolerance="10"
     gridtolerance="10"
     guidetolerance="10"
     inkscape:pageopacity="0"
     inkscape:pageshadow="2"
     inkscape:window-width="1920"
     inkscape:window-height="997"
     id="namedview18"
     showgrid="false"
     inkscape:zoom="3.0080129"
     inkscape:cx="37.599697"
     inkscape:cy="-20.259962"
     inkscape:window-x="1920"
     inkscape:window-y="28"
     inkscape:window-maximized="1"
     inkscape:current-layer="svg16"
     inkscape:document-rotation="0" />
  <g
     id="g49"
     transform="translate(3.1464598,5.4390781)">
    <path
       d="M 76.4423,5.50646e-7 C 74.8536,-9.72271e-4 73.5654,1.28719 73.5664,2.87589 V 21.4785 c 3.3729,1.1628 5.6661,4.3017 5.7483,7.8685 V 2.87589 C 79.3156,1.28854 78.0296,9.55156e-4 76.4423,5.50646e-7 Z"
       fill="#ff7f2a"
       id="path2" />
    <path
       d="M 47.3657,4.12564e-7 C 45.7771,-8.41552e-4 44.4891,1.28714 44.49,2.87569 V 46.6475 c 9e-4,1.5873 1.2884,2.8732 2.8757,2.8724 1.586,-10e-4 2.8714,-1.2864 2.8724,-2.8724 V 2.87569 C 50.2389,1.28842 48.9529,9.61703e-4 47.3657,4.12564e-7 Z"
       fill="#000000"
       id="path4" />
    <path
       d="M 18.7783,2.09565 C 13.6945,2.86748 8.86669,5.50367 5.33338,9.83161 -1.73323,18.4875 -1.78269,31.2176 5.21587,39.9333 c 6.99853,8.7156 19.22693,10.7082 28.39133,4.5404 0.6323,-0.4256 1.0697,-1.0848 1.216,-1.8329 0.1463,-0.748 -0.0105,-1.5235 -0.4359,-2.1559 -0.4256,-0.6323 -1.0848,-1.0697 -1.8328,-1.216 -0.7481,-0.1463 -1.5236,0.0105 -2.156,0.4359 C 23.6273,44.262 14.9576,42.8869 9.6975,36.3362 4.43742,29.7856 4.4768,19.9673 9.78563,13.4646 15.0945,6.96179 23.7718,5.66134 30.5095,10.2788 c 0.6285,0.431 1.4025,0.5947 2.1517,0.4551 0.7493,-0.1395 1.4124,-0.5709 1.8436,-1.19933 C 34.9355,8.90564 35.0987,8.13138 34.9585,7.38213 34.8183,6.63287 34.3862,5.96999 33.7573,5.53929 29.1998,2.41601 23.862,1.32382 18.7783,2.09565 Z"
       fill="#ff7f2a"
       id="path6" />
    <path
       d="m 56.6548,20.9966 c -1.5864,-10e-5 -2.8724,1.2979 -2.8725,2.8992 1e-4,1.6013 1.2861,2.8993 2.8725,2.8992 0.1282,0 0.2563,-0.0087 0.3834,-0.0259 h 5.6801 7.7666 0.3015 v -0.0164 c 1.5409,2e-4 2.7901,1.2494 2.7903,2.7904 v 8.0611 8.8419 c -0.0045,0.0667 -0.0068,0.1335 -0.0068,0.2003 10e-5,1.6013 1.2861,2.8993 2.8724,2.8993 1.586,-4e-4 2.8715,-1.2983 2.8716,-2.8993 h 0.0035 V 29.5431 c 0,-4.7115 -3.8194,-8.531 -8.5309,-8.531 H 70.7778 56.9511 c -0.0985,-0.0103 -0.1973,-0.0155 -0.2963,-0.0155 z"
       fill="#000000"
       id="path8" />
    <path
       d="M 122.125,5.50646e-7 C 120.536,-9.72271e-4 119.248,1.28719 119.249,2.87589 V 21.4785 c 3.373,1.1628 5.666,4.3017 5.748,7.8685 V 2.87589 C 124.998,1.28854 123.712,9.55156e-4 122.125,5.50646e-7 Z"
       fill="#ff7f2a"
       id="path10" />
    <path
       d="M 93.0464,4.14039e-7 C 91.4591,9.60033e-4 90.1731,1.28841 90.174,2.87569 V 46.6475 c 9e-4,1.586 1.2864,2.8714 2.8724,2.8724 1.5873,8e-4 2.8747,-1.2851 2.8757,-2.8724 V 2.87569 C 95.9229,1.28714 94.6349,-8.43054e-4 93.0464,4.14039e-7 Z"
       fill="#000000"
       id="path12" />
    <path
       d="m 102.337,20.9966 c -1.586,-10e-5 -2.872,1.2979 -2.8721,2.8992 1e-4,1.6013 1.2861,2.8993 2.8721,2.8992 0.129,0 0.257,-0.0087 0.384,-0.0259 h 5.68 7.767 0.301 v -0.0164 c 1.541,2e-4 2.79,1.2494 2.79,2.7904 v 8.0611 8.8419 c -0.004,0.0667 -0.007,0.1335 -0.007,0.2003 0.001,1.6013 1.287,2.8993 2.873,2.8993 1.586,-4e-4 2.871,-1.2983 2.872,-2.8993 H 125 V 29.5431 c 0,-4.7115 -3.819,-8.531 -8.531,-8.531 h -0.009 -13.826 c -0.099,-0.0103 -0.198,-0.0155 -0.297,-0.0155 z"
       fill="#000000"
       id="path14" />
  </g>
  <path
     d="m 139.96352,13.781928 c 0.46467,0 0.95767,-0.051 1.479,-0.153 0.53267,-0.102 1.00867,-0.238 1.428,-0.408 v 1.819 c -0.62333,0.2493 -1.18433,0.4193 -1.683,0.51 -0.48733,0.102 -0.99733,0.153 -1.53,0.153 -1.68867,0 -2.86733,-0.4193 -3.536,-1.258 -0.66867,-0.85 -1.003,-2.26667 -1.003,-4.25 0,-1.8926699 0.39667,-3.2753299 1.19,-4.1479999 0.79333,-0.884 2.06833,-1.326 3.825,-1.326 0.52133,0 0.986,0.01133 1.394,0.034 0.408,0.02267 0.77633,0.06233 1.105,0.119001 v 1.785 c -0.43067,-0.034 -0.85,-0.05667 -1.258,-0.068 -0.39667,-0.02267 -0.81033,-0.034 -1.241,-0.034 -1.14467,0 -1.921,0.26633 -2.329,0.799 -0.39667,0.53267 -0.595,1.479 -0.595,2.8389999 0,1.36 0.18133,2.30067 0.544,2.822 0.374,0.51 1.11067,0.765 2.21,0.764999 z m 8.8688,-1.87 v 3.638 h -2.04 V 4.8909271 h 3.757 c 1.5754,0 2.6974,0.266334 3.366,0.799001 0.68,0.53267 1.02,1.42233 1.02,2.669 0,0.89533 -0.1983,1.62067 -0.595,2.1759999 -0.3853,0.544 -0.9746,0.92367 -1.768,1.139 l 2.686,3.876 h -2.448 l -2.397,-3.638 z m 4.029,-3.5529999 c 0,-0.58933 -0.1756,-1.00867 -0.527,-1.258 -0.34,-0.24933 -0.935,-0.374 -1.785,-0.374 h -1.717 v 3.4849999 h 1.717 c 0.85,0 1.445,-0.14167 1.785,-0.4249999 0.3514,-0.28333 0.527,-0.75933 0.527,-1.428 z m 8.3325,-3.468001 V 15.549928 h -2.04 V 4.8909271 Z m 8.674,6.4260009 -2.363,-0.561 c -0.782,-0.18133 -1.3316,-0.476 -1.649,-0.8839999 -0.3173,-0.41933 -0.476,-1.01433 -0.476,-1.785 0,-1.156 0.3174,-2.006 0.952,-2.550001 0.6347,-0.544 1.6207,-0.815999 2.958,-0.815999 0.5554,0 1.0484,0.02833 1.479,0.085 0.442,0.04533 0.85,0.119 1.224,0.221 v 1.836 c -0.646,-0.12467 -1.1616,-0.204 -1.547,-0.238 -0.3853,-0.04533 -0.782,-0.068 -1.19,-0.068 -0.68,0 -1.1616,0.10767 -1.445,0.323 -0.2833,0.204 -0.425,0.561 -0.425,1.071 0,0.29467 0.0567,0.52133 0.17,0.68 0.1247,0.14733 0.3287,0.255 0.612,0.323 l 2.295,0.544 c 0.5327,0.12467 0.9294,0.255 1.19,0.391 0.2607,0.1246699 0.476,0.2833299 0.646,0.4759999 0.17,0.21533 0.2947,0.48167 0.374,0.799 0.0907,0.31733 0.136,0.70833 0.136,1.173 0,1.20133 -0.3173,2.06267 -0.952,2.584 -0.6346,0.5213 -1.6206,0.782 -2.958,0.782 -0.6913,0 -1.36,-0.0453 -2.006,-0.136 -0.6346,-0.0907 -1.1333,-0.204 -1.496,-0.34 v -1.921 c 0.4874,0.14733 1.037,0.26633 1.649,0.357 0.6234,0.07933 1.241,0.119 1.853,0.119 0.6687,0 1.1334,-0.09067 1.394,-0.272 0.272,-0.19267 0.408,-0.561 0.408,-1.105 0,-0.34 -0.0566,-0.58367 -0.17,-0.731 -0.102,-0.15867 -0.323,-0.27767 -0.663,-0.357 z m 14.3722,-6.4260009 v 1.836001 h -3.23 v 8.8229999 h -2.04 V 6.7269281 h -3.213 v -1.836001 z m 5.8372,0 V 15.549928 h -2.04 V 4.8909271 Z m 5.767,10.6590009 h -2.142 l 4.08,-10.6590009 h 2.108 l 4.012,10.6590009 h -2.142 l -0.765,-2.176 h -4.403 z m 2.941,-8.7039999 c -0.1246,0.43067 -0.2663,0.884 -0.425,1.36 -0.1473,0.476 -0.289,0.918 -0.425,1.326 l -0.748,2.1589999 h 3.213 l -0.748,-2.1589999 c -0.1246,-0.36267 -0.2663,-0.782 -0.425,-1.258 -0.1586,-0.48733 -0.306,-0.96333 -0.442,-1.428 z m 17.7212,-1.955001 V 15.549928 h -1.989 l -5.049,-7.2249999 v 7.2249999 h -1.921 V 4.8909271 h 1.989 l 5.066,7.3950009 V 4.8909271 Z m -78.9399,30.6590009 h -2.04 v -10.659 h 2.04 v 4.318 h 4.658 v -4.318 h 2.04 v 10.659 h -2.04 v -4.488 h -4.658 z m 17.9824,-4.369 v -6.29 h 2.04 v 6.29 c 0,1.53 -0.3627,2.669 -1.088,3.417 -0.7253,0.7367 -1.836,1.105 -3.332,1.105 -1.53,0 -2.6463,-0.357 -3.349,-1.071 -0.7027,-0.714 -1.054,-1.8643 -1.054,-3.451 v -6.29 h 2.04 v 6.29 c 0,0.9973 0.17,1.683 0.51,2.057 0.34,0.3627 0.9577,0.544 1.853,0.544 0.9067,0 1.53,-0.187 1.87,-0.561 0.34,-0.374 0.51,-1.054 0.51,-2.04 z m 8.5834,-6.29 v 10.659 h -2.04 v -10.659 z m 7.773,6.596 v -6.596 h 2.04 v 6.715 c 0,1.4507 -0.3173,2.499 -0.952,3.145 -0.6233,0.6347 -1.6547,0.952 -3.094,0.952 -0.408,0 -0.7763,-0.017 -1.105,-0.051 -0.3173,-0.034 -0.595,-0.085 -0.833,-0.153 v -1.87 c 0.238,0.0567 0.493,0.0963 0.765,0.119 0.272,0.0227 0.5837,0.034 0.935,0.034 0.884,0 1.479,-0.1587 1.785,-0.476 0.306,-0.3287 0.459,-0.935 0.459,-1.819 z m 10.6395,-0.17 -2.363,-0.561 c -0.782,-0.1813 -1.3317,-0.476 -1.649,-0.884 -0.3174,-0.4193 -0.476,-1.0143 -0.476,-1.785 0,-1.156 0.3173,-2.006 0.952,-2.55 0.6346,-0.544 1.6206,-0.816 2.958,-0.816 0.5553,0 1.0483,0.0283 1.479,0.085 0.442,0.0453 0.85,0.119 1.224,0.221 v 1.836 c -0.646,-0.1247 -1.1617,-0.204 -1.547,-0.238 -0.3854,-0.0453 -0.782,-0.068 -1.19,-0.068 -0.68,0 -1.1617,0.1077 -1.445,0.323 -0.2834,0.204 -0.425,0.561 -0.425,1.071 0,0.2947 0.0566,0.5213 0.17,0.68 0.1246,0.1473 0.3286,0.255 0.612,0.323 l 2.295,0.544 c 0.5326,0.1247 0.9293,0.255 1.19,0.391 0.2606,0.1247 0.476,0.2833 0.646,0.476 0.17,0.2153 0.2946,0.4817 0.374,0.799 0.0906,0.3173 0.136,0.7083 0.136,1.173 0,1.2013 -0.3174,2.0627 -0.952,2.584 -0.6347,0.5213 -1.6207,0.782 -2.958,0.782 -0.6914,0 -1.36,-0.0453 -2.006,-0.136 -0.6347,-0.0907 -1.1334,-0.204 -1.496,-0.34 v -1.921 c 0.4873,0.1473 1.037,0.2663 1.649,0.357 0.6233,0.0793 1.241,0.119 1.853,0.119 0.6686,0 1.1333,-0.0907 1.394,-0.272 0.272,-0.1927 0.408,-0.561 0.408,-1.105 0,-0.34 -0.0567,-0.5837 -0.17,-0.731 -0.102,-0.1587 -0.323,-0.2777 -0.663,-0.357 z m 14.1282,2.312 v 1.921 h -7.208 v -10.659 h 7.055 v 1.836 h -5.015 v 2.516 h 4.386 v 1.751 h -4.386 v 2.635 z m -59.1065,21.921 h -2.04 v -10.659 h 2.04 v 4.318 h 4.658 v -4.318 h 2.04 v 10.659 h -2.04 v -4.488 h -4.658 z m 18.4924,-1.921 v 1.921 h -7.208 v -10.659 h 7.055 v 1.836 h -5.015 v 2.516 h 4.386 v 1.751 h -4.386 v 2.635 z m 6.1144,-8.738 v 10.659 h -2.04 v -10.659 z m 8.674,6.426 -2.363,-0.561 c -0.782,-0.1813 -1.3316,-0.476 -1.649,-0.884 -0.3173,-0.4193 -0.476,-1.0143 -0.476,-1.785 0,-1.156 0.3174,-2.006 0.952,-2.55 0.6347,-0.544 1.6207,-0.816 2.958,-0.816 0.5554,0 1.0484,0.0283 1.479,0.085 0.442,0.0453 0.85,0.119 1.224,0.221 v 1.836 c -0.646,-0.1247 -1.1616,-0.204 -1.547,-0.238 -0.3853,-0.0453 -0.782,-0.068 -1.19,-0.068 -0.68,0 -1.1616,0.1077 -1.445,0.323 -0.2833,0.204 -0.425,0.561 -0.425,1.071 0,0.2947 0.0567,0.5213 0.17,0.68 0.1247,0.1473 0.3287,0.255 0.612,0.323 l 2.295,0.544 c 0.5327,0.1247 0.9294,0.255 1.19,0.391 0.2607,0.1247 0.476,0.2833 0.646,0.476 0.17,0.2153 0.2947,0.4817 0.374,0.799 0.0907,0.3173 0.136,0.7083 0.136,1.173 0,1.2013 -0.3173,2.0627 -0.952,2.584 -0.6346,0.5213 -1.6206,0.782 -2.958,0.782 -0.6913,0 -1.36,-0.0453 -2.006,-0.136 -0.6346,-0.0907 -1.1333,-0.204 -1.496,-0.34 v -1.921 c 0.4874,0.1473 1.037,0.2663 1.649,0.357 0.6234,0.0793 1.241,0.119 1.853,0.119 0.6687,0 1.1334,-0.0907 1.394,-0.272 0.272,-0.1927 0.408,-0.561 0.408,-1.105 0,-0.34 -0.0566,-0.5837 -0.17,-0.731 -0.102,-0.1587 -0.323,-0.2777 -0.663,-0.357 z m 14.1282,2.312 v 1.921 h -7.208 v -10.659 h 7.055 v 1.836 h -5.015 v 2.516 h 4.386 v 1.751 h -4.386 v 2.635 z"
     fill="#000000"
     id="path2-3" />
</svg>
